<svg width="32" height="32" viewBox="0 0 32 32" fill="currentColor" xmlns="http://www.w3.org/2000/svg">
<path fill-rule="evenodd" clip-rule="evenodd" d="M4 16C4 9.37 9.37 4 16 4C22.63 4 28 9.37 28 16C28 22.63 22.63 28 16 28C9.37 28 4 22.63 4 16ZM9.89 23.9C11.58 25.21 13.7 26 16 26C18.3 26 20.42 25.21 22.11 23.9C20.61 22.48 18.5 21.5 16 21.5C13.5 21.5 11.39 22.48 9.89 23.9ZM16 19.5C19.09 19.5 21.7 20.74 23.55 22.54C25.07 20.79 26 18.5 26 16C26 10.49 21.51 6 16 6C10.49 6 6 10.49 6 16C6 18.5 6.93 20.79 8.45 22.54C10.31 20.74 12.91 19.5 16 19.5ZM19 13C19 11.35 17.65 10 16 10C14.35 10 13 11.35 13 13C13 14.65 14.35 16 16 16C17.65 16 19 14.65 19 13ZM11 13C11 10.24 13.24 8 16 8C18.76 8 21 10.24 21 13C21 15.76 18.76 18 16 18C13.24 18 11 15.76 11 13Z" />
</svg>
