<svg width="32" height="32" viewBox="0 0 32 32" fill="currentColor" xmlns="http://www.w3.org/2000/svg">
<path fill-rule="evenodd" clip-rule="evenodd" d="M24.4961 16.8682C24.8077 16.6902 25 16.3589 25 16C25 15.6411 24.8077 15.3098 24.4961 15.1318L10.4961 7.13176C10.1866 6.9549 9.80639 6.95617 9.49807 7.13509C9.18976 7.31401 9 7.64353 9 8L9 24C9 24.3565 9.18976 24.686 9.49807 24.8649C9.80639 25.0438 10.1866 25.0451 10.4961 24.8682L24.4961 16.8682ZM25.4884 18.6047C26.4231 18.0706 27 17.0766 27 16C27 14.9234 26.4231 13.9294 25.4884 13.3953L11.4884 5.39527C10.5599 4.86469 9.41916 4.8685 8.49422 5.40527C7.56928 5.94204 7 6.93059 7 8V24C7 25.0694 7.56928 26.058 8.49422 26.5947C9.41916 27.1315 10.5599 27.1353 11.4884 26.6047L25.4884 18.6047Z" />
</svg>
