<svg width="32" height="32" viewBox="0 0 32 32" fill="currentColor" xmlns="http://www.w3.org/2000/svg">
<path fill-rule="evenodd" clip-rule="evenodd" d="M22 14.4C24.4853 14.4 26.5 12.3853 26.5 9.90002C26.5 7.41474 24.4853 5.40002 22 5.40002C19.5147 5.40002 17.5 7.41474 17.5 9.90002C17.5 12.3853 19.5147 14.4 22 14.4ZM2.53833 25.6154C2.53833 26.2077 3.02295 26.6923 3.61525 26.6923H18.6922C19.2845 26.6923 19.7691 26.2077 19.7691 25.6154C19.7691 21.5446 16.226 17 11.1537 17C6.08141 17 2.53833 21.5446 2.53833 25.6154ZM18.0566 17.4846C18.9182 17.1831 19.8551 17 20.8459 17C25.9182 17 29.4613 21.5446 29.4613 25.6154C29.4613 26.2077 28.9766 26.6923 28.3843 26.6923H21.729C21.8474 26.3585 21.9228 25.9923 21.9228 25.6154C21.9228 22.6969 20.4797 19.6062 18.0566 17.4846ZM14.5 9.90002C14.5 12.3853 12.4853 14.4 10 14.4C7.51472 14.4 5.5 12.3853 5.5 9.90002C5.5 7.41474 7.51472 5.40002 10 5.40002C12.4853 5.40002 14.5 7.41474 14.5 9.90002Z" />
</svg>
