<svg width="32" height="32" viewBox="0 0 32 32" fill="currentColor" xmlns="http://www.w3.org/2000/svg">
<path fill-rule="evenodd" clip-rule="evenodd" d="M10.06 7.16C11.5504 7.16 12.76 8.3696 12.76 9.86C12.76 11.3504 11.5504 12.56 10.06 12.56C8.5696 12.56 7.36 11.3504 7.36 9.86C7.36 8.3696 8.5696 7.16 10.06 7.16ZM10.06 5C7.3708 5 5.2 7.1708 5.2 9.86C5.2 12.5492 7.3708 14.72 10.06 14.72C12.7492 14.72 14.92 12.5492 14.92 9.86C14.92 7.1708 12.7492 5 10.06 5ZM21.9401 7.16C23.4305 7.16 24.6401 8.3696 24.6401 9.86C24.6401 11.3504 23.4305 12.56 21.9401 12.56C20.4497 12.56 19.2401 11.3504 19.2401 9.86C19.2401 8.3696 20.4497 7.16 21.9401 7.16ZM21.9401 5C19.2509 5 17.0801 7.1708 17.0801 9.86C17.0801 12.5492 19.2509 14.72 21.9401 14.72C24.6293 14.72 26.8001 12.5492 26.8001 9.86C26.8001 7.1708 24.6293 5 21.9401 5ZM16.0108 18.4676C17.3608 17.4956 19.0024 16.88 20.86 16.88C25.9468 16.88 29.5 21.4376 29.5 25.52C29.5 26.114 29.014 26.6 28.42 26.6C27.826 26.6 27.34 26.114 27.34 25.52C27.34 22.4528 24.6832 19.04 20.86 19.04C19.6504 19.04 18.5488 19.3856 17.62 19.958C18.9808 21.5672 19.78 23.5976 19.78 25.52C19.78 26.114 19.294 26.6 18.7 26.6C18.106 26.6 17.62 26.114 17.62 25.52C17.62 22.4528 14.9632 19.04 11.14 19.04C7.3168 19.04 4.66 22.4528 4.66 25.52C4.66 26.114 4.174 26.6 3.58 26.6C2.986 26.6 2.5 26.114 2.5 25.52C2.5 21.4376 6.0532 16.88 11.14 16.88C13.0084 16.88 14.6608 17.4956 16.0108 18.4676Z" />
</svg>
