<svg width="24" height="21" viewBox="0 0 24 21" fill="currentColor" xmlns="http://www.w3.org/2000/svg">
  <path fill-rule="evenodd" clip-rule="evenodd"
    d="M18.75 10.5H19.5C19.8 10.5 19.95 10.875 19.8 11.1L18.3 13.125C18.15 13.35 17.85 13.35 17.7 13.125L16.2 11.1C16.05 10.875 16.2 10.5 16.5 10.5H17.25V6C17.25 4.725 16.275 3.75 15 3.75H9.00003C8.85003 3.75 8.62503 3.75 8.40003 3.825C8.02503 3.9 7.57503 3.675 7.50003 3.3C7.42503 2.925 7.65003 2.475 8.02503 2.4C8.08937 2.38713 8.1515 2.37426 8.2118 2.36177C8.50297 2.30147 8.7515 2.25 9.00003 2.25H15C17.1 2.25 18.75 3.9 18.75 6V10.5ZM15.6 14.1749C15.975 14.0999 16.425 14.3249 16.5 14.6999C16.575 15.0749 16.35 15.5249 15.975 15.5999C15.9106 15.6128 15.8485 15.6257 15.7882 15.6382C15.497 15.6985 15.2485 15.7499 15 15.7499H8.99996C6.89996 15.7499 5.24996 14.0999 5.24996 11.9999V7.49993H4.49996C4.19996 7.49993 4.04996 7.12493 4.19996 6.89993L5.69996 4.87493C5.84996 4.64993 6.14996 4.64993 6.29996 4.87493L7.79996 6.89993C7.94996 7.12493 7.79996 7.49993 7.49996 7.49993H6.74996V11.9999C6.74996 13.2749 7.72496 14.2499 8.99996 14.2499H15C15.15 14.2499 15.375 14.2499 15.6 14.1749Z"
    alignment-baseline="" />
</svg>