<svg width="18" height="18" fill="currentColor" viewBox="0 0 18 18"  xmlns="http://www.w3.org/2000/svg">
<path d="M16.2599 9.55537L9.62994 15.6529C9.56244 15.7129 9.47244 15.7504 9.37494 15.7504C9.16494 15.7504 8.99994 15.5854 8.99994 15.3754V12.0004C5.24994 12.0004 3.17244 13.1179 2.22744 14.4829C2.06244 14.7154 1.66494 14.6329 1.61994 14.3629C0.704938 8.50537 5.99994 6.00037 8.99994 6.00037V2.62537C8.99994 2.52787 9.03744 2.43787 9.09744 2.37037C9.23994 2.22037 9.47994 2.21287 9.62994 2.34787L16.2599 8.44537C16.2749 8.46037 16.2899 8.47537 16.3049 8.49037C16.5824 8.79787 16.5599 9.27037 16.2599 9.55537Z" />
</svg>
