<svg width="116" height="32" viewBox="0 0 116 32" fill="#FAFDFF" xmlns="http://www.w3.org/2000/svg">
<path d="M9.99584 0C7.57684 0 3.58851 0 3.02874 0C2.24906 0 1.80925 0.0294393 1.46939 0.206076C0.819658 0.52991 0.469805 1.28552 0.639734 1.98226C0.799668 2.57105 1.23948 2.93413 1.86922 3.45423C2.05914 3.61124 7.94669 8.45894 7.94669 8.45894C8.67639 9.06736 9.15619 9.56783 9.49605 10.0585C10.5856 11.5403 10.5956 13.2576 10.6256 13.866C10.6656 14.5235 10.6656 15.2497 10.6656 16.0053C10.6656 17.4576 10.6656 28.2226 10.6656 28.2226L2.66889 21.638V9.01829C2.66889 8.75334 2.54894 8.4982 2.33903 8.33137L0.499792 6.82015C0.299875 6.65332 0 6.79071 0 7.04585C0 7.04585 0.00999644 19.803 0.00999644 20.5095C0.00999644 21.059 0.00999584 21.9815 0.0999584 22.3838C0.149938 22.5997 0.209913 22.796 0.449813 23.11C0.659725 23.3848 1.10954 23.7577 1.53936 24.1109C1.98917 24.4838 10.0658 31.1273 10.0658 31.1273C10.7855 31.7358 11.4952 32.1283 12.2149 31.9615C12.6847 31.8535 12.9146 31.5984 13.0446 31.3727C13.2445 31.039 13.3344 30.568 13.3344 29.6357C13.3344 29.6357 13.3344 18.6254 13.3344 16.1917C13.3344 14.9651 13.2945 13.7973 13.2445 13.1104C13.0046 10.1076 12.075 8.33137 9.79592 6.565L4.69804 2.6103C4.69804 2.6103 8.33653 2.6103 10.0458 2.6103C11.915 2.6103 13.6543 2.65937 14.9338 3.07152C18.6522 4.27854 21.3311 7.72296 21.3311 11.766C21.3311 14.7786 19.8417 17.4576 17.5527 19.1258C17.3928 19.2436 17.3028 19.4202 17.3028 19.6165V21.8441C17.3028 22.0698 17.5527 22.217 17.7526 22.109C21.4711 20.1072 24 16.231 24 11.7758C24 6.43743 20.3615 1.91357 15.3936 0.480845C13.7543 -2.33964e-07 11.7051 0 9.99584 0Z" />
<path fill-rule="evenodd" clip-rule="evenodd" d="M38.5654 21.7974C38.5654 21.9474 38.4711 22.0413 38.3202 22.0413H36.2452C36.0943 22.0413 36 21.9474 36 21.7974V6.26266C36 6.09381 36.0943 6 36.2452 6L42.074 6C45.526 6 47.5821 8.58911 47.601 11.666C47.5632 14.7617 45.5071 17.3321 42.074 17.3321H38.5466V21.7974H38.5654ZM41.942 14.9306C43.8094 14.9306 45.0544 13.4859 45.0733 11.6848C45.0733 9.75234 43.7528 8.38273 41.942 8.38273H38.5654V14.9306H41.942ZM51.8074 21.7974C51.8074 21.9474 51.7131 22.0413 51.5622 22.0413L49.6193 22.0413C49.4873 22.0413 49.3929 21.9474 49.3929 21.7974V6.2439C49.3929 6.09381 49.4684 6 49.6193 6H51.5622C51.7131 6 51.8074 6.09381 51.8074 6.2439V21.7974ZM63.6539 10.8782C63.7105 10.7469 63.7859 10.6531 63.918 10.6531H65.4648C65.5968 10.6531 65.6911 10.7469 65.6911 10.897V21.7788C65.6911 21.9289 65.5968 22.0227 65.4459 22.0227H63.8991C63.7482 22.0227 63.6728 21.9289 63.635 21.7976L63.3144 20.3154C62.4655 21.5537 61.1262 22.2666 59.3719 22.2666C55.9199 22.2854 53.6186 19.8651 53.6186 16.3379C53.6186 12.8107 55.9199 10.4279 59.3719 10.4092C61.1262 10.4092 62.4655 11.1221 63.3144 12.3604L63.6539 10.8782ZM59.5228 19.9214C61.6544 19.9214 63.088 18.5142 63.1446 16.3566C63.088 14.2366 61.6544 12.8294 59.5228 12.8294C57.3913 12.8294 55.9765 14.2366 55.9765 16.3566C55.9765 18.458 57.4101 19.9214 59.5228 19.9214ZM80.8004 19.1516L80.0082 20.6525C79.9327 20.8026 79.9705 20.9527 80.0459 21.0465C80.5175 21.403 82.0832 22.2848 84.3468 22.2848C87.0442 22.3036 88.8739 20.8965 88.7985 18.7201C88.7419 16.7501 87.4026 15.9246 84.8749 15.2867C83.2338 14.8552 82.517 14.5362 82.517 13.7482C82.517 12.7726 84.0449 12.6788 84.7052 12.6788C85.9 12.7336 86.7366 13.2339 87.1276 13.4677L87.1574 13.4856C87.214 13.5231 87.2517 13.5418 87.3083 13.5418C87.4026 13.5418 87.4781 13.4856 87.4969 13.3917L88.2703 11.9096C88.3458 11.7782 88.2892 11.6094 88.1949 11.5343C87.7799 11.2341 86.4406 10.3899 84.5354 10.3711C81.9511 10.3711 80.0082 11.7219 80.0648 13.8608C80.1402 15.6432 81.2532 16.6188 83.6865 17.2942C85.3842 17.7257 86.3463 18.0634 86.3463 18.8702C86.384 19.5644 85.5351 20.0146 84.2902 20.0146C83.1584 20.0146 82.102 19.6769 81.14 19.0766C81.0834 19.039 81.0457 19.0203 80.9891 19.0203C80.9325 19.0203 80.857 19.0766 80.8004 19.1516ZM96.7967 20.015C98.0417 20.015 99.0226 19.6022 99.6451 19.0019C99.7205 18.9268 99.796 18.908 99.8714 18.908C99.9469 18.908 100.022 18.9268 100.06 18.9831L101.305 20.2401C101.399 20.3339 101.399 20.484 101.305 20.5778C100.268 21.7223 98.6453 22.2852 96.6835 22.2852C93.0429 22.2852 90.5718 19.8837 90.5718 16.3565C90.5718 12.8292 92.9486 10.4277 96.5137 10.4277C100.135 10.4277 102.456 12.6416 102.418 17.0882C102.418 17.257 102.343 17.3133 102.173 17.3133H93.1183C93.4579 18.9643 94.7972 20.015 96.7967 20.015ZM99.9091 15.4747C99.6073 13.8236 98.3623 12.7354 96.5137 12.7354C94.6274 12.7354 93.3824 13.8236 93.0806 15.4747H99.9091ZM76.7636 10.6904H78.8386C79.0272 10.6904 79.1215 10.803 79.0649 11.0281L75.6129 19.4897L74.0661 23.3358C73.4248 24.9494 71.9157 26 70.1992 26H69.0485H68.9919H68.973C68.841 26 68.7278 25.8874 68.7278 25.7561V23.8237C68.7278 23.6923 68.841 23.5798 68.973 23.5798H68.9919H69.0485H70.1992C70.8782 23.5798 71.463 23.167 71.7648 22.5103L71.9723 21.985L67.4828 11.0281C67.4262 10.8405 67.5205 10.7092 67.6903 10.7092H69.803C69.9539 10.7092 70.0671 10.7655 70.1237 10.8968L73.1796 19.0394L76.4429 10.878C76.4995 10.7655 76.6127 10.6904 76.7636 10.6904ZM113.227 19.0019C112.604 19.6022 111.623 20.015 110.378 20.015C108.398 20.015 107.058 18.9643 106.7 17.3133H115.754C115.924 17.3133 115.999 17.257 115.999 17.0882C116.037 12.6416 113.717 10.4277 110.095 10.4277C106.53 10.4277 104.153 12.8292 104.153 16.3565C104.153 19.8837 106.624 22.2852 110.265 22.2852C112.227 22.2852 113.849 21.7223 114.887 20.5778C114.981 20.484 114.981 20.3339 114.887 20.2401L113.642 18.9831C113.604 18.9268 113.528 18.908 113.453 18.908C113.377 18.908 113.302 18.9268 113.227 19.0019ZM110.114 12.7354C111.963 12.7354 113.208 13.8236 113.509 15.4747H106.681C106.983 13.8236 108.228 12.7354 110.114 12.7354Z" />
</svg>
