<svg width="80" height="24" viewBox="0 0 80 24" fill="currentColor" xmlns="http://www.w3.org/2000/svg">
<path fill-rule="evenodd" clip-rule="evenodd" d="M2.56542 19.7974C2.56542 19.9474 2.4711 20.0413 2.32019 20.0413H0.245223C0.094316 20.0413 0 19.9474 0 19.7974L0 4.26266C0 4.09381 0.094316 4 0.245223 4L6.074 4C9.526 4 11.5821 6.58911 11.601 9.66603C11.5632 12.7617 9.50714 15.3321 6.074 15.3321H2.54655L2.54655 19.7974H2.56542ZM5.94196 12.9306C7.80943 12.9306 9.05441 11.4859 9.07328 9.68479C9.07328 7.75234 7.75284 6.38273 5.94196 6.38273L2.56542 6.38273L2.56542 12.9306H5.94196ZM15.8074 19.7974C15.8074 19.9474 15.7131 20.0413 15.5622 20.0413L13.6193 20.0413C13.4873 20.0413 13.3929 19.9474 13.3929 19.7974L13.3929 4.2439C13.3929 4.09381 13.4684 4 13.6193 4H15.5622C15.7131 4 15.8074 4.09381 15.8074 4.2439L15.8074 19.7974ZM27.6539 8.87822C27.7105 8.74689 27.7859 8.65308 27.918 8.65308H29.4648C29.5968 8.65308 29.6911 8.74689 29.6911 8.89698L29.6911 19.7788C29.6911 19.9289 29.5968 20.0227 29.4459 20.0227H27.8991C27.7482 20.0227 27.6728 19.9289 27.635 19.7976L27.3144 18.3154C26.4655 19.5537 25.1262 20.2666 23.3719 20.2666C19.9199 20.2854 17.6186 17.8651 17.6186 14.3379C17.6186 10.8107 19.9199 8.42794 23.3719 8.40918C25.1262 8.40918 26.4655 9.12212 27.3144 10.3604L27.6539 8.87822ZM23.5228 17.9214C25.6544 17.9214 27.088 16.5142 27.1446 14.3566C27.088 12.2366 25.6544 10.8294 23.5228 10.8294C21.3913 10.8294 19.9765 12.2366 19.9765 14.3566C19.9765 16.458 21.4101 17.9214 23.5228 17.9214ZM44.8004 17.1516L44.0082 18.6525C43.9327 18.8026 43.9705 18.9527 44.0459 19.0465C44.5175 19.403 46.0832 20.2848 48.3468 20.2848C51.0442 20.3036 52.8739 18.8965 52.7985 16.7201C52.7419 14.7501 51.4026 13.9246 48.8749 13.2867C47.2338 12.8552 46.517 12.5362 46.517 11.7482C46.517 10.7726 48.0449 10.6788 48.7052 10.6788C49.9 10.7336 50.7366 11.2339 51.1276 11.4677L51.1574 11.4856C51.214 11.5231 51.2517 11.5418 51.3083 11.5418C51.4026 11.5418 51.4781 11.4856 51.4969 11.3917L52.2703 9.90956C52.3458 9.77823 52.2892 9.60937 52.1949 9.53433C51.7799 9.23414 50.4406 8.38986 48.5354 8.37109C45.9511 8.37109 44.0082 9.72194 44.0648 11.8608C44.1402 13.6432 45.2532 14.6188 47.6865 15.2942C49.3842 15.7257 50.3463 16.0634 50.3463 16.8702C50.384 17.5644 49.5351 18.0146 48.2902 18.0146C47.1584 18.0146 46.102 17.6769 45.14 17.0766C45.0834 17.039 45.0457 17.0203 44.9891 17.0203C44.9325 17.0203 44.857 17.0766 44.8004 17.1516ZM60.7967 18.015C62.0417 18.015 63.0226 17.6022 63.6451 17.0019C63.7205 16.9268 63.796 16.908 63.8714 16.908C63.9469 16.908 64.0223 16.9268 64.06 16.9831L65.305 18.2401C65.3993 18.3339 65.3993 18.484 65.305 18.5778C64.2675 19.7223 62.6453 20.2852 60.6835 20.2852C57.0429 20.2852 54.5718 17.8837 54.5718 14.3565C54.5718 10.8292 56.9486 8.42773 60.5137 8.42773C64.1355 8.42773 66.4557 10.6416 66.418 15.0882C66.418 15.257 66.3425 15.3133 66.1727 15.3133L57.1183 15.3133C57.4579 16.9643 58.7972 18.015 60.7967 18.015ZM63.9091 13.4747C63.6073 11.8236 62.3623 10.7354 60.5137 10.7354C58.6274 10.7354 57.3824 11.8236 57.0806 13.4747H63.9091ZM40.7636 8.69043H42.8386C43.0272 8.69043 43.1215 8.803 43.0649 9.02814L39.6129 17.4897L38.0661 21.3358C37.4248 22.9494 35.9157 24 34.1992 24H33.0485H32.9919H32.973C32.841 24 32.7278 23.8874 32.7278 23.7561V21.8237C32.7278 21.6923 32.841 21.5798 32.973 21.5798H32.9919H33.0485H34.1992C34.8782 21.5798 35.463 21.167 35.7648 20.5103L35.9723 19.985L31.4828 9.02814C31.4262 8.84052 31.5205 8.70919 31.6903 8.70919H33.803C33.9539 8.70919 34.0671 8.76547 34.1237 8.8968L37.1796 17.0394L40.4429 8.87805C40.4995 8.76548 40.6127 8.69043 40.7636 8.69043ZM77.2265 17.0019C76.604 17.6022 75.6231 18.015 74.3782 18.015C72.3975 18.015 71.0582 16.9643 70.6998 15.3133H79.7542C79.924 15.3133 79.9995 15.257 79.9995 15.0882C80.0372 10.6416 77.717 8.42773 74.0952 8.42773C70.53 8.42773 68.1532 10.8292 68.1532 14.3565C68.1532 17.8837 70.6243 20.2852 74.265 20.2852C76.2268 20.2852 77.849 19.7223 78.8865 18.5778C78.9808 18.484 78.9808 18.3339 78.8865 18.2401L77.6415 16.9831C77.6038 16.9268 77.5283 16.908 77.4529 16.908C77.3774 16.908 77.302 16.9268 77.2265 17.0019ZM74.1141 10.7354C75.9627 10.7354 77.2077 11.8236 77.5095 13.4747H70.6809C70.9827 11.8236 72.2277 10.7354 74.1141 10.7354Z" />
</svg>
