<svg width="40" height="40" viewBox="0 0 40 40" fill="none" xmlns="http://www.w3.org/2000/svg">
<rect width="40" height="40" rx="20" fill="url(#paint0_radial_17744_30621)"/>
<path d="M19.5447 9.38965C17.8929 9.38965 15.1894 9.38965 14.8043 9.38965C14.271 9.38965 13.9747 9.41187 13.7451 9.53038C13.3007 9.75999 13.0637 10.2785 13.1822 10.7599C13.2933 11.1673 13.5896 11.4191 14.0192 11.7821C14.1525 11.8932 18.1522 15.2485 18.1522 15.2485C18.6484 15.6707 18.9743 16.0188 19.204 16.3521C19.9446 17.3742 19.952 18.5741 19.9743 18.9963C19.9965 19.4482 20.0039 19.9592 20.0039 20.4777C20.0039 21.485 20.0039 28.9437 20.0039 28.9437L14.5599 24.3811V15.641C14.5599 15.4559 14.4784 15.2855 14.3377 15.167L13.0859 14.1152C12.9526 14.0041 12.7452 14.1004 12.7452 14.2708C12.7452 14.2708 12.7452 23.1145 12.7452 23.6034C12.7452 23.9886 12.7452 24.6255 12.8044 24.8996C12.8341 25.0477 12.8785 25.1811 13.0415 25.4033C13.1822 25.5958 13.4933 25.8551 13.7821 26.0995C14.0858 26.3587 19.5817 30.9658 19.5817 30.9658C20.0706 31.388 20.552 31.6546 21.0483 31.5435C21.3668 31.4695 21.5223 31.2917 21.6112 31.1362C21.7519 30.9066 21.8112 30.5807 21.8112 29.9289C21.8112 29.9289 21.8112 22.2998 21.8112 20.611C21.8112 19.7592 21.7815 18.9519 21.7519 18.4779C21.589 16.3965 20.952 15.167 19.4039 13.9375L15.9301 11.1969C15.9301 11.1969 18.404 11.1969 19.5669 11.1969C20.8409 11.1969 22.0186 11.2265 22.8926 11.5154C25.4183 12.3524 27.2478 14.7374 27.2478 17.5446C27.2478 19.6333 26.2331 21.485 24.6776 22.6479C24.5739 22.7294 24.5073 22.8479 24.5073 22.9812V24.5219C24.5073 24.6774 24.6776 24.7811 24.8109 24.707C27.3441 23.3219 29.0625 20.6333 29.0625 17.5446C29.0625 13.8412 26.5886 10.7081 23.2037 9.71555C22.1 9.38965 20.7075 9.38965 19.5447 9.38965Z" fill="#FAFDFF"/>
<defs>
<radialGradient id="paint0_radial_17744_30621" cx="0" cy="0" r="1" gradientUnits="userSpaceOnUse" gradientTransform="translate(-1.47737 -6.78891) scale(62.5165)">
<stop offset="0.2053" stop-color="#FAB44B"/>
<stop offset="0.6783" stop-color="#FF765C"/>
<stop offset="1" stop-color="#F8504F"/>
</radialGradient>
</defs>
</svg>
